{
    "asset" : {
        "generator" : "Khronos glTF Blender I/O v1.6.16",
        "version" : "2.0"
    },
    "scene" : 0,
    "scenes" : [
        {
            "name" : "Scene",
            "nodes" : [
                0
            ]
        }
    ],
    "nodes" : [
        {
            "mesh" : 0,
            "name" : "Icosphere",
            "rotation" : [
                0,
                0.16301636397838593,
                0,
                0.9866234660148621
            ]
        }
    ],
    "materials" : [
        {
            "doubleSided" : true,
            "name" : "wool",
            "pbrMetallicRoughness" : {
                "baseColorFactor" : [
                    0.7837154269218445,
                    0.8011922240257263,
                    0.8549783229827881,
                    1
                ],
                "metallicFactor" : 0,
                "roughnessFactor" : 0.6545454263687134
            }
        },
        {
            "doubleSided" : true,
            "name" : "skin",
            "pbrMetallicRoughness" : {
                "baseColorFactor" : [
                    0.0005154446116648614,
                    0.0005154446116648614,
                    0.0005154446116648614,
                    1
                ],
                "metallicFactor" : 0,
                "roughnessFactor" : 0.8954545259475708
            }
        }
    ],
    "meshes" : [
        {
            "name" : "Icosphere",
            "primitives" : [
                {
                    "attributes" : {
                        "POSITION" : 0,
                        "NORMAL" : 1,
                        "TEXCOORD_0" : 2
                    },
                    "indices" : 3,
                    "material" : 0
                },
                {
                    "attributes" : {
                        "POSITION" : 4,
                        "NORMAL" : 5,
                        "TEXCOORD_0" : 6
                    },
                    "indices" : 7,
                    "material" : 1
                }
            ]
        }
    ],
    "accessors" : [
        {
            "bufferView" : 0,
            "componentType" : 5126,
            "count" : 293,
            "max" : [
                0.6495310664176941,
                1.242590308189392,
                0.9643126726150513
            ],
            "min" : [
                -0.7807915210723877,
                -0.45461201667785645,
                -0.5873435735702515
            ],
            "type" : "VEC3"
        },
        {
            "bufferView" : 1,
            "componentType" : 5126,
            "count" : 293,
            "type" : "VEC3"
        },
        {
            "bufferView" : 2,
            "componentType" : 5126,
            "count" : 293,
            "type" : "VEC2"
        },
        {
            "bufferView" : 3,
            "componentType" : 5123,
            "count" : 333,
            "type" : "SCALAR"
        },
        {
            "bufferView" : 4,
            "componentType" : 5126,
            "count" : 177,
            "max" : [
                0.11667083948850632,
                1.239912509918213,
                1.0617599487304688
            ],
            "min" : [
                -0.48219817876815796,
                0.6383152604103088,
                0.42070722579956055
            ],
            "type" : "VEC3"
        },
        {
            "bufferView" : 5,
            "componentType" : 5126,
            "count" : 177,
            "type" : "VEC3"
        },
        {
            "bufferView" : 6,
            "componentType" : 5126,
            "count" : 177,
            "type" : "VEC2"
        },
        {
            "bufferView" : 7,
            "componentType" : 5123,
            "count" : 261,
            "type" : "SCALAR"
        }
    ],
    "bufferViews" : [
        {
            "buffer" : 0,
            "byteLength" : 3516,
            "byteOffset" : 0
        },
        {
            "buffer" : 0,
            "byteLength" : 3516,
            "byteOffset" : 3516
        },
        {
            "buffer" : 0,
            "byteLength" : 2344,
            "byteOffset" : 7032
        },
        {
            "buffer" : 0,
            "byteLength" : 666,
            "byteOffset" : 9376
        },
        {
            "buffer" : 0,
            "byteLength" : 2124,
            "byteOffset" : 10044
        },
        {
            "buffer" : 0,
            "byteLength" : 2124,
            "byteOffset" : 12168
        },
        {
            "buffer" : 0,
            "byteLength" : 1416,
            "byteOffset" : 14292
        },
        {
            "buffer" : 0,
            "byteLength" : 522,
            "byteOffset" : 15708
        }
    ],
    "buffers" : [
        {
            "byteLength" : 16232,
            "uri" : "data:application/octet-stream;base64,"
        }
    ]
}
